<svg xmlns="http://www.w3.org/2000/svg" xmlns:xlink="http://www.w3.org/1999/xlink" xmlns:fi="http://pattern.flaticon.com/" viewBox="0 0 700 350" fill="#ffffff40">
	<defs>
		<g id="a">
			<path d="m197.886 161.28-7.785-11.558a9.45 9.45 0 0 0-4.34-3.477l1.772-6.613a1.094 1.094 0 0 0-2.113-.566l-1.776 6.625c-1.232-.181-2.503-.143-3.752.192-.59.158-1.17.376-1.722.647l-12.512 6.111c-2.535 1.222-4.253 3.305-4.967 6.018l-8.24 30.715c-1.31 5 1.685 10.16 6.677 11.5l20.298 5.442a9.39 9.39 0 0 0 4.857.004 9.442 9.442 0 0 0 6.659-6.649l8.238-30.715c.711-2.7.264-5.355-1.294-7.675zm-.82 7.115-8.236 30.71a7.25 7.25 0 0 1-5.113 5.103 7.202 7.202 0 0 1-3.723-.003l-20.298-5.443c-3.835-1.03-6.136-4.993-5.13-8.827l8.24-30.714c.554-2.109 1.834-3.66 3.807-4.61l12.519-6.118a7.385 7.385 0 0 1 1.326-.498 7.086 7.086 0 0 1 2.617-.18l-2.774 10.352a5.707 5.707 0 0 0-1.878.169c-1.998.535-3.56 2.101-4.077 4.075-.833 3.06.99 6.232 4.069 7.07.98.268 2.012.271 2.987.01a5.812 5.812 0 0 0 4.084-4.077 5.717 5.717 0 0 0-.576-4.396 5.684 5.684 0 0 0-2.49-2.304l2.77-10.332a7.262 7.262 0 0 1 3.102 2.564l7.782 11.555c1.211 1.809 1.545 3.794.992 5.894zm-14.05-6.282a3.54 3.54 0 0 1 .356 2.725 3.615 3.615 0 0 1-2.539 2.54c-.6.16-1.239.158-1.845-.007-1.913-.522-3.05-2.49-2.53-4.396a3.562 3.562 0 0 1 2.53-2.526c.24-.064.484-.094.729-.108l-.878 3.278a1.094 1.094 0 0 0 2.113.566l.88-3.284c.479.301.89.704 1.184 1.212z" />
			<path d="M171.375 174.392c-5.882 1.576-9.387 7.645-7.81 13.529 1.58 5.899 7.652 9.416 13.536 7.84s9.384-7.66 7.803-13.558c-1.576-5.884-7.644-9.387-13.529-7.81zm5.16 19.257c-4.718 1.264-9.589-1.56-10.857-6.294-1.264-4.718 1.545-9.584 6.264-10.849s9.585 1.546 10.85 6.264c1.268 4.734-1.539 9.615-6.257 10.879z" />
			<path d="m177.238 180.568-3.419 5.92-3.008-1.756a1.093 1.093 0 1 0-1.103 1.889l3.957 2.31c.251.147.55.188.832.113h.002c.28-.076.52-.259.664-.51l3.968-6.874a1.093 1.093 0 1 0-1.893-1.092z" />
		</g>
		<g id="c">
			<path d="M107.205 262.688c0-4.79-3.907-8.686-8.709-8.686-.273 0-.541.016-.808.041a13.708 13.708 0 0 0-9.012-6.898 4.244 4.244 0 0 0 1.279-3.037c0-2.348-1.91-4.257-4.259-4.257s-4.258 1.91-4.258 4.257c0 1.188.49 2.262 1.278 3.037-6.059 1.363-10.601 6.777-10.601 13.24v10.823c-2.381.004-4.318 1.952-4.318 4.347 0 2.397 1.94 4.347 4.324 4.347h7.602c.385 2.955 2.914 5.247 5.973 5.247s5.588-2.292 5.974-5.247h7.601c2.384 0 4.324-1.95 4.324-4.347a4.343 4.343 0 0 0-3.644-4.289c4.11-.695 7.254-4.271 7.254-8.578zm-24.207-18.58c0-1.486 1.21-2.695 2.697-2.695s2.696 1.209 2.696 2.695c0 1.462-1.235 2.696-2.696 2.696s-2.697-1.234-2.697-2.696zm2.697 4.258c4.262 0 8.234 2.321 10.38 5.985-3.616 1.051-6.268 4.387-6.268 8.337 0 4.183 2.959 7.685 6.888 8.519h-23.02v-10.823c0-6.626 5.392-12.018 12.02-12.018zm0 35.22a4.47 4.47 0 0 1-4.395-3.684h8.79a4.47 4.47 0 0 1-4.395 3.685zm16.338-8.031c0 1.536-1.24 2.784-2.762 2.784H72.12c-1.523 0-2.762-1.25-2.762-2.784s1.239-2.785 2.762-2.785H99.27c1.523 0 2.762 1.249 2.762 2.785zm-3.538-5.72c-3.929 0-7.125-3.205-7.125-7.146 0-3.928 3.196-7.124 7.125-7.124 3.942 0 7.147 3.196 7.147 7.124.001 3.94-3.205 7.147-7.147 7.147z" />
			<path d="M69.153 260.679h.022a.782.782 0 0 0 .78-.76c.145-5.27 2.92-10.09 7.427-12.89a.781.781 0 1 0-.824-1.327c-4.954 3.078-8.006 8.378-8.165 14.175-.012.43.329.79.76.802zM101.796 259.922l-3.898 3.898-2.018-2.017a.78.78 0 1 0-1.104 1.105l2.57 2.57a.78.78 0 0 0 1.104 0l4.45-4.451a.78.78 0 1 0-1.104-1.105z" />
		</g>
		<g id="e">
			<path d="m173.4 361.597-4.156-7.199v-6.358a2.748 2.748 0 0 0-2.745-2.744c-.098 0-.191.02-.287.03-.237-1.272-1.343-2.238-2.672-2.238a2.72 2.72 0 0 0-.479.046v-.305c0-1.537-1.261-2.788-2.812-2.788a2.792 2.792 0 0 0-2.788 2.788v9.318c0 .11.028.218.084.313l5.745 9.925v5.53a.625.625 0 1 0 1.25 0v-5.697a.62.62 0 0 0-.084-.314l-5.745-9.925v-9.15c0-.848.69-1.538 1.538-1.538.862 0 1.562.69 1.562 1.538v8.057c-.012.037-.03.07-.04.108a2.803 2.803 0 0 0 .279 2.13l3.1 5.357a.625.625 0 0 0 1.083-.626l-3.1-5.356a1.56 1.56 0 0 1-.153-1.185 1.538 1.538 0 0 1 2.824-.377l6.431 11.138.021 5.841c.002.345.28.623.625.623h.002a.625.625 0 0 0 .623-.628l-.022-6.006a.628.628 0 0 0-.084-.308zm-10.326-12.31c-.005.002-.009.007-.013.01v-4.871c.154-.053.313-.089.478-.089.812 0 1.473.671 1.473 1.495v3.149a2.77 2.77 0 0 0-1.938.306zm3.189.291v-3.007c.078-.013.156-.025.236-.025.824 0 1.495.67 1.495 1.494v4.192l-1.108-1.919a2.778 2.778 0 0 0-.623-.735zM189.728 340.04a2.792 2.792 0 0 0-2.788 2.79v.306a2.676 2.676 0 0 0-.48-.049c-1.33 0-2.435.967-2.671 2.24-.096-.01-.19-.031-.287-.031a2.748 2.748 0 0 0-2.745 2.744v6.337l-4.177 7.216a.627.627 0 0 0-.085.315v6.006a.625.625 0 1 0 1.25 0v-5.837l6.431-11.141a1.558 1.558 0 0 1 2.128-.565c.74.426.994 1.38.565 2.126l-3.1 5.358a.625.625 0 0 0 1.083.626l3.101-5.36c.407-.71.463-1.52.238-2.243v-8.049c0-.848.69-1.538 1.538-1.538.86 0 1.561.69 1.561 1.538v9.15l-5.745 9.925a.626.626 0 0 0-.084.313v5.697a.625.625 0 1 0 1.25 0v-5.529l5.745-9.925a.626.626 0 0 0 .084-.313v-9.318c0-1.537-1.262-2.788-2.812-2.788zm-6.636 10.273-1.086 1.889v-4.162c0-.824.67-1.494 1.495-1.494.08 0 .158.012.237.025v2.99a2.77 2.77 0 0 0-.646.752zm1.896-1.337v-3.144c0-.823.66-1.495 1.471-1.495.166 0 .325.038.48.093v4.866l-.013-.01a2.803 2.803 0 0 0-1.938-.31zM181.776 338.23c0-3.733-3.043-6.77-6.784-6.77a6.776 6.776 0 0 0-6.768 6.77c0 3.74 3.036 6.783 6.769 6.783a6.792 6.792 0 0 0 6.783-6.784zm-6.784 5.533c-3.043 0-5.518-2.482-5.518-5.534a5.525 5.525 0 0 1 5.519-5.518c3.05 0 5.533 2.475 5.533 5.518a5.54 5.54 0 0 1-5.534 5.534z" />
			<path d="m177.553 336.068-3.024 3.01-1.648-1.647a.624.624 0 1 0-.884.883l2.089 2.09a.623.623 0 0 0 .883.001l3.467-3.45a.625.625 0 1 0-.883-.887z" />
		</g>
		<g id="g">
			<path d="M267.784 344.488h-.972v-1.035a.312.312 0 0 0-.312-.312h-2.062v-1.184c0-.564-.458-1.022-1.021-1.022h-1.763c-.563 0-1.021.458-1.021 1.022v1.184h-2.07a.312.312 0 0 0-.313.312v1.035h-1.034c-.954 0-1.73.775-1.73 1.73v11.116c0 .954.776 1.73 1.73 1.73h10.567c.954 0 1.73-.776 1.73-1.73v-11.116c0-.954-.775-1.73-1.73-1.73zm-6.526-2.531c0-.219.177-.396.396-.396h1.763c.218 0 .396.177.396.396v1.184h-2.555v-1.184zm-2.383 1.81h7.312v1.033c0 .57-.464 1.034-1.034 1.034h-5.236a1.04 1.04 0 0 1-1.042-1.034zm10.013 13.568c0 .609-.495 1.104-1.104 1.104h-10.568c-.609 0-1.104-.495-1.104-1.104v-11.117c0-.61.495-1.105 1.104-1.105h1.066a1.667 1.667 0 0 0 1.636 1.346h5.235c.808 0 1.48-.58 1.627-1.346h1.004c.609 0 1.104.495 1.104 1.105z" />
			<path d="M262.496 348.42a3.355 3.355 0 1 0 .007 6.71 3.355 3.355 0 0 0-.007-6.71zm0 6.087a2.734 2.734 0 0 1-2.726-2.735 2.729 2.729 0 0 1 2.726-2.726 2.733 2.733 0 0 1 2.734 2.726 2.738 2.738 0 0 1-2.734 2.735z" />
			<path d="m263.754 350.7-1.488 1.49-1.029-1.03a.312.312 0 1 0-.442.443l1.25 1.249a.312.312 0 0 0 .442 0l1.71-1.71a.312.312 0 1 0-.443-.442zM263.01 342.078h-.958a.312.312 0 1 0 0 .625h.958a.312.312 0 1 0 0-.625z" />
		</g>
		<g id="i">
			<path d="M95.69 353.368h-.813v-7.837a2.268 2.268 0 0 0-2.27-2.261H82.384a2.264 2.264 0 0 0-2.26 2.26v7.838h-.813a.312.312 0 0 0-.313.313v1.364c0 .93.756 1.685 1.686 1.685h13.633c.929 0 1.685-.756 1.685-1.685v-1.364a.313.313 0 0 0-.313-.313zm-14.942-7.837c0-.902.734-1.636 1.636-1.636h10.223c.907 0 1.645.734 1.645 1.636v7.837H80.748zm14.629 9.514c0 .585-.476 1.06-1.06 1.06H80.683c-.585 0-1.06-.475-1.06-1.06v-1.052h15.753z" />
			<path d="M87.496 345.51a3.115 3.115 0 1 0 .007 6.234 3.115 3.115 0 0 0-.007-6.233zm0 5.608a2.49 2.49 0 0 1-2.487-2.486 2.494 2.494 0 0 1 2.487-2.496 2.498 2.498 0 0 1 2.495 2.496 2.493 2.493 0 0 1-2.495 2.486z" />
			<path d="m88.64 347.622-1.357 1.356-.691-.691a.312.312 0 1 0-.442.441l.912.913a.312.312 0 0 0 .442 0l1.577-1.577a.312.312 0 1 0-.442-.442z" />
		</g>
		<g id="k">
			<path d="m29.11-34.408-25.374-6.8c-8.8-2.357-17.795 1.127-22.903 8.05-8.777 1.021-16.13 7.288-18.412 15.805L-44.378 8.02c-3.073 11.47 3.774 23.307 15.266 26.386l25.376 6.8c8.509 2.28 17.592-.942 22.848-8.013 8.569-.96 16.105-7.021 18.468-15.84l6.8-25.375c3.071-11.471-3.778-23.308-15.27-26.387zM-3.008 38.49l-25.376-6.8c-9.992-2.677-15.95-12.969-13.277-22.941l6.799-25.374c1.782-6.653 7.125-11.737 13.732-13.345a21.566 21.566 0 0 0-1.51 3.992L-29.439-.605C-32.518 10.887-25.69 22.737-14.22 25.81l25.373 6.799c1.406.377 2.817.6 4.215.69C10.69 38.197 3.634 40.27-3.008 38.49zm37.87-21.865C32.185 26.618 21.875 32.57 11.88 29.892l-25.373-6.799C-23.466 20.421-29.4 10.117-26.722.123l6.799-25.373c2.672-9.973 12.96-15.913 22.931-13.24l25.374 6.798c9.993 2.678 15.951 12.97 13.28 22.943z" />
			<path d="M22.58-10.477 2.032 1.355-4.483-9.926A1.405 1.405 0 1 0-6.918-8.52L.299 3.979a1.402 1.402 0 0 0 1.92.515L23.982-8.038a1.406 1.406 0 1 0-1.404-2.439z" />
		</g>
		<g id="m">
			<path d="M100.996 83.377c0-7.446-6.05-13.504-13.487-13.504-7.447 0-13.505 6.058-13.505 13.504 0 5.031 2.774 9.425 6.874 11.743v8.135c0 .676.331 1.26.9 1.596.3.185.63.278.964.278.294 0 .59-.073.87-.218l3.897-1.983 3.882 1.974c.582.317 1.252.3 1.85-.053a1.86 1.86 0 0 0 .882-1.595V95.12c4.096-2.317 6.873-6.708 6.873-11.742zm-8.124 19.878a.599.599 0 0 1-.277.525.603.603 0 0 1-.622.016l-4.181-2.126a.624.624 0 0 0-.566 0l-4.187 2.13a.592.592 0 0 1-.615-.02.583.583 0 0 1-.296-.525v-7.51a13.439 13.439 0 0 0 10.744 0zm-5.363-7.64c-6.758 0-12.255-5.49-12.255-12.238 0-6.758 5.497-12.254 12.255-12.254 6.747 0 12.237 5.497 12.237 12.254 0 6.748-5.49 12.237-12.237 12.237z" />
			<path d="M87.509 76.073c-4.028 0-7.305 3.276-7.305 7.305 0 4.026 3.277 7.303 7.305 7.303s7.304-3.276 7.304-7.303c0-4.029-3.277-7.305-7.304-7.305zm0 13.358a6.061 6.061 0 0 1-6.055-6.054c0-3.339 2.716-6.055 6.055-6.055s6.054 2.716 6.054 6.055a6.061 6.061 0 0 1-6.054 6.054z" />
			<path d="m90.522 80.756-3.917 3.916-2.127-2.126a.624.624 0 1 0-.884.884l2.57 2.568a.623.623 0 0 0 .883 0l4.359-4.358a.624.624 0 1 0-.884-.884z" />
		</g>
		<g id="o">
			<path d="M291.52 221.73h-37.47c-6.446 0-11.69 5.244-11.69 11.69v2.3h-12.028c-4.71 0-8.542 3.85-8.542 8.582v47.276c0 6.447 5.244 11.69 11.69 11.69h58.04c6.446 0 11.69-5.243 11.69-11.69V233.42c0-6.446-5.244-11.69-11.69-11.69zm-66.918 69.85v-47.277c0-3.18 2.57-5.768 5.729-5.768h12.027v53.045c0 4.895-3.982 8.878-8.877 8.878s-8.88-3.983-8.88-8.878zm75.796 0c0 4.895-3.982 8.878-8.877 8.878h-50.455c2.509-2.146 4.105-5.327 4.105-8.878v-58.16c0-4.895 3.982-8.877 8.877-8.877h37.471c4.896 0 8.878 3.982 8.878 8.877v58.16z" />
			<path d="M272.784 262.372c7.656 0 13.884-6.228 13.884-13.884s-6.228-13.884-13.884-13.884-13.884 6.229-13.884 13.884 6.23 13.884 13.884 13.884zm0-24.954c6.104 0 11.071 4.967 11.071 11.072s-4.967 11.07-11.071 11.07-11.072-4.966-11.072-11.07 4.969-11.072 11.072-11.072zM285.461 265.179h-25.353a1.407 1.407 0 0 0 0 2.812h25.352a1.407 1.407 0 0 0 .001-2.812zM285.461 276.381h-25.353a1.407 1.407 0 0 0 0 2.813h25.352a1.407 1.407 0 0 0 .001-2.813zM285.461 287.582h-25.353a1.407 1.407 0 0 0 0 2.812h25.352a1.407 1.407 0 0 0 .001-2.812z" />
			<path d="M270.833 252.99a1.405 1.405 0 0 0 1.989 0l7.016-7.015c.55-.55.55-1.438 0-1.988s-1.439-.55-1.989 0l-6.021 6.021-3.073-3.072a1.405 1.405 0 1 0-1.988 1.988z" />
		</g>
		<g id="q">
			<path d="M276.56 77.047c-6.35-3.261-13.646-7.829-13.72-7.874a.627.627 0 0 0-.664 0c-.073.045-7.37 4.613-13.737 7.875a.626.626 0 0 0-.34.56c.006 1.156.305 28.312 14.153 28.315h.002c.09 0 .178 0 .237-.003.091.003.182.003.272.003 13.833 0 14.13-27.16 14.135-28.316a.62.62 0 0 0-.337-.56zm-13.796 27.626-.271-.004c-.082.003-.176.002-.24.004-11.784-.003-12.81-23.4-12.895-26.692 5.55-2.869 11.675-6.628 13.15-7.542 1.476.914 7.599 4.674 13.135 7.542-.084 3.289-1.102 26.691-12.879 26.691z" />
			<path d="M254.85 89.014c0 4.222 3.436 7.657 7.659 7.657s7.658-3.435 7.658-7.657c0-4.223-3.436-7.659-7.658-7.659s-7.658 3.436-7.658 7.659zm14.068 0c0 3.533-2.875 6.407-6.409 6.407s-6.408-2.874-6.408-6.407c0-3.534 2.875-6.409 6.408-6.409s6.409 2.875 6.409 6.409z" />
			<path d="M260.117 88.252a.625.625 0 1 0-.885.884l2.285 2.286a.625.625 0 0 0 .885 0l3.95-3.951a.624.624 0 1 0-.883-.884l-3.509 3.51z" />
		</g>
		<g id="s">
			<path d="m375.177 193.597-6.48-11.208a23.516 23.516 0 0 0 4.921-14.413c0-13.014-10.602-23.601-23.633-23.601-13.015 0-23.603 10.588-23.603 23.6a23.535 23.535 0 0 0 4.91 14.407l-6.473 11.224c-.59 1.04-.59 2.235.01 3.296.61 1.032 1.642 1.622 2.832 1.622h6.283l3.163 5.479a3.266 3.266 0 0 0 2.833 1.622 3.302 3.302 0 0 0 2.87-1.633l7.13-12.381h.046l.076-.001 7.136 12.393c.61 1.03 1.642 1.622 2.833 1.622a3.271 3.271 0 0 0 2.838-1.632l3.157-5.469h6.313c1.19 0 2.223-.591 2.845-1.641.588-1.043.587-2.237-.007-3.286zm-25.192-47.035c11.825 0 21.446 9.606 21.446 21.414 0 11.827-9.62 21.447-21.446 21.447-11.808 0-21.416-9.621-21.416-21.447 0-11.808 9.606-21.414 21.416-21.414zm-9.065 56.328c-.4.673-1.518.697-1.925.01l-3.473-6.016a1.093 1.093 0 0 0-.947-.547h-6.914c-.409 0-.737-.19-.938-.53-.215-.378-.215-.745-.005-1.115l6.08-10.543c3.772 4.018 8.925 6.72 14.694 7.33zm32.368-7.101c-.211.359-.54.548-.95.548h-6.945c-.39 0-.752.208-.947.547l-3.467 6.006c-.423.718-1.48.706-1.892.01l-6.579-11.425c5.764-.615 10.912-3.312 14.682-7.32l6.088 10.53c.215.377.215.744.01 1.104z" />
			<path d="M349.985 180.76c7.048 0 12.782-5.735 12.782-12.784 0-7.047-5.734-12.782-12.782-12.782s-12.783 5.734-12.783 12.782 5.735 12.784 12.783 12.784zm0-23.377c5.841 0 10.595 4.752 10.595 10.594 0 5.843-4.754 10.596-10.595 10.596s-10.595-4.753-10.595-10.596 4.753-10.594 10.595-10.594z" />
			<path d="M347.66 172.564a1.093 1.093 0 0 0 1.547 0l7.628-7.629a1.093 1.093 0 1 0-1.547-1.546l-6.854 6.855-3.722-3.723a1.093 1.093 0 1 0-1.547 1.547z" />
		</g>
	</defs>
	<g fi:class="KUsePattern">
		<pattern id="b" width="350" height="350" patternUnits="userSpaceOnUse">
			<use xlink:href="#a" x="-350" y="-350" />
			<use xlink:href="#a" y="-350" />
			<use xlink:href="#a" x="350" y="-350" />
			<use xlink:href="#a" x="-350" />
			<use xlink:href="#a" />
			<use xlink:href="#a" x="350" />
			<use xlink:href="#a" x="-350" y="350" />
			<use xlink:href="#a" y="350" />
			<use xlink:href="#a" x="350" y="350" />
		</pattern>
		<rect width="100%" height="100%" fill="url(#b)" />
	</g>
	<g fi:class="KUsePattern">
		<pattern id="d" width="350" height="350" patternUnits="userSpaceOnUse">
			<use xlink:href="#c" x="-350" y="-350" />
			<use xlink:href="#c" y="-350" />
			<use xlink:href="#c" x="350" y="-350" />
			<use xlink:href="#c" x="-350" />
			<use xlink:href="#c" />
			<use xlink:href="#c" x="350" />
			<use xlink:href="#c" x="-350" y="350" />
			<use xlink:href="#c" y="350" />
			<use xlink:href="#c" x="350" y="350" />
		</pattern>
		<rect width="100%" height="100%" fill="url(#d)" />
	</g>
	<g fi:class="KUsePattern">
		<pattern id="f" width="350" height="350" patternUnits="userSpaceOnUse">
			<use xlink:href="#e" x="-350" y="-350" />
			<use xlink:href="#e" y="-350" />
			<use xlink:href="#e" x="350" y="-350" />
			<use xlink:href="#e" x="-350" />
			<use xlink:href="#e" />
			<use xlink:href="#e" x="350" />
			<use xlink:href="#e" x="-350" y="350" />
			<use xlink:href="#e" y="350" />
			<use xlink:href="#e" x="350" y="350" />
		</pattern>
		<rect width="100%" height="100%" fill="url(#f)" />
	</g>
	<g fi:class="KUsePattern">
		<pattern id="h" width="350" height="350" patternUnits="userSpaceOnUse">
			<use xlink:href="#g" x="-350" y="-350" />
			<use xlink:href="#g" y="-350" />
			<use xlink:href="#g" x="350" y="-350" />
			<use xlink:href="#g" x="-350" />
			<use xlink:href="#g" />
			<use xlink:href="#g" x="350" />
			<use xlink:href="#g" x="-350" y="350" />
			<use xlink:href="#g" y="350" />
			<use xlink:href="#g" x="350" y="350" />
		</pattern>
		<rect width="100%" height="100%" fill="url(#h)" />
	</g>
	<g fi:class="KUsePattern">
		<pattern id="j" width="350" height="350" patternUnits="userSpaceOnUse">
			<use xlink:href="#i" x="-350" y="-350" />
			<use xlink:href="#i" y="-350" />
			<use xlink:href="#i" x="350" y="-350" />
			<use xlink:href="#i" x="-350" />
			<use xlink:href="#i" />
			<use xlink:href="#i" x="350" />
			<use xlink:href="#i" x="-350" y="350" />
			<use xlink:href="#i" y="350" />
			<use xlink:href="#i" x="350" y="350" />
		</pattern>
		<rect width="100%" height="100%" fill="url(#j)" />
	</g>
	<g fi:class="KUsePattern">
		<pattern id="l" width="350" height="350" patternUnits="userSpaceOnUse">
			<use xlink:href="#k" x="-350" y="-350" />
			<use xlink:href="#k" y="-350" />
			<use xlink:href="#k" x="350" y="-350" />
			<use xlink:href="#k" x="-350" />
			<use xlink:href="#k" />
			<use xlink:href="#k" x="350" />
			<use xlink:href="#k" x="-350" y="350" />
			<use xlink:href="#k" y="350" />
			<use xlink:href="#k" x="350" y="350" />
		</pattern>
		<rect width="100%" height="100%" fill="url(#l)" />
	</g>
	<g fi:class="KUsePattern">
		<pattern id="n" width="350" height="350" patternUnits="userSpaceOnUse">
			<use xlink:href="#m" x="-350" y="-350" />
			<use xlink:href="#m" y="-350" />
			<use xlink:href="#m" x="350" y="-350" />
			<use xlink:href="#m" x="-350" />
			<use xlink:href="#m" />
			<use xlink:href="#m" x="350" />
			<use xlink:href="#m" x="-350" y="350" />
			<use xlink:href="#m" y="350" />
			<use xlink:href="#m" x="350" y="350" />
		</pattern>
		<rect width="100%" height="100%" fill="url(#n)" />
	</g>
	<g fi:class="KUsePattern">
		<pattern id="p" width="350" height="350" patternUnits="userSpaceOnUse">
			<use xlink:href="#o" x="-350" y="-350" />
			<use xlink:href="#o" y="-350" />
			<use xlink:href="#o" x="350" y="-350" />
			<use xlink:href="#o" x="-350" />
			<use xlink:href="#o" />
			<use xlink:href="#o" x="350" />
			<use xlink:href="#o" x="-350" y="350" />
			<use xlink:href="#o" y="350" />
			<use xlink:href="#o" x="350" y="350" />
		</pattern>
		<rect width="100%" height="100%" fill="url(#p)" />
	</g>
	<g fi:class="KUsePattern">
		<pattern id="r" width="350" height="350" patternUnits="userSpaceOnUse">
			<use xlink:href="#q" x="-350" y="-350" />
			<use xlink:href="#q" y="-350" />
			<use xlink:href="#q" x="350" y="-350" />
			<use xlink:href="#q" x="-350" />
			<use xlink:href="#q" />
			<use xlink:href="#q" x="350" />
			<use xlink:href="#q" x="-350" y="350" />
			<use xlink:href="#q" y="350" />
			<use xlink:href="#q" x="350" y="350" />
		</pattern>
		<rect width="100%" height="100%" fill="url(#r)" />
	</g>
	<g fi:class="KUsePattern">
		<pattern id="t" width="350" height="350" patternUnits="userSpaceOnUse">
			<use xlink:href="#s" x="-350" y="-350" />
			<use xlink:href="#s" y="-350" />
			<use xlink:href="#s" x="350" y="-350" />
			<use xlink:href="#s" x="-350" />
			<use xlink:href="#s" />
			<use xlink:href="#s" x="350" />
			<use xlink:href="#s" x="-350" y="350" />
			<use xlink:href="#s" y="350" />
			<use xlink:href="#s" x="350" y="350" />
		</pattern>
		<rect width="100%" height="100%" fill="url(#t)" />
	</g>
</svg>
