<svg xmlns="http://www.w3.org/2000/svg" xmlns:xlink="http://www.w3.org/1999/xlink" xmlns:fi="http://pattern.flaticon.com/" viewBox="0 0 700 350" opacity="0.2" fill="#fff">
	<defs>
		<g transform="matrix(1.0564813725036684 -0.2830833305808821 0.2830833305808821 1.0564813725036684 131.88371443021862 150.36757635915097)" id="L1_17">
			<path d="m55.706 25.256-4.14-12.05c-.583-1.681-1.653-3.086-3.01-4.098l3.13-5.42c.276-.478.112-1.09-.366-1.366-.478-.277-1.09-.113-1.366.366l-3.136 5.43c-1.045-.451-2.177-.718-3.359-.718-.559 0-1.122.055-1.674.164l-12.496 2.436c-2.528.479-4.538 1.912-5.81 4.139l-14.545 25.176c-2.341 4.106-.917 9.371 3.175 11.736l16.638 9.609c1.305.754 2.788 1.153 4.288 1.153 3.065 0 5.922-1.646 7.454-4.296l14.544-25.176c1.267-2.217 1.5-4.667.673-7.085zm-2.407 6.089-14.541 25.172c-1.177 2.034-3.369 3.297-5.723 3.297-1.149 0-2.286-.306-3.287-.884l-16.638-9.61c-3.143-1.817-4.237-5.861-2.441-9.009l14.544-25.175c.989-1.731 2.486-2.798 4.454-3.171l12.503-2.44c.426-.083.859-.126 1.289-.126.823 0 1.614.172 2.354.46l-4.9 8.486c-.546-.188-1.118-.295-1.698-.295-1.891 0-3.642 1.013-4.565 2.634-1.46 2.505-.6 5.738 1.92 7.207.802.468 1.713.715 2.636.715 1.872 0 3.623-1.009 4.571-2.634.712-1.221.9-2.648.532-4.018-.279-1.042-.858-1.946-1.654-2.624l4.892-8.469c.952.765 1.711 1.784 2.132 2.998l4.138 12.046c.642 1.884.467 3.716-.518 5.44zm-10.922-8.873c.229.851.111 1.735-.33 2.491-.59 1.013-1.68 1.642-2.843 1.642-.568 0-1.132-.153-1.628-.442-1.566-.914-2.104-2.92-1.194-4.481.573-1.007 1.658-1.632 2.832-1.632.226 0 .449.031.669.077l-1.551 2.687c-.276.478-.112 1.09.366 1.366.157.091.329.134.499.134.346 0 .682-.179.867-.5l1.555-2.692c.351.379.618.832.758 1.35z" />
			<path d="m29.191 30.562c-5.568 0-10.099 4.53-10.099 10.099 0 5.584 4.53 10.127 10.099 10.127s10.1-4.543 10.1-10.127c0-5.569-4.53-10.099-10.1-10.099zm0 18.227c-4.466 0-8.099-3.646-8.099-8.127 0-4.466 3.633-8.099 8.099-8.099s8.1 3.633 8.1 8.099c0 4.481-3.634 8.127-8.1 8.127z" />
			<path d="m32.907 37.403-4.42 4.42-2.241-2.263c-.388-.393-1.022-.396-1.414-.007-.393.389-.396 1.022-.007 1.414l2.948 2.977c.187.189.442.296.708.296h.002c.265 0 .52-.105.707-.293l5.131-5.131c.391-.391.391-1.023 0-1.414s-1.023-.39-1.414.001z" />
		</g>
		<g transform="matrix(0.78125 0 0 0.78125 62.5 237.5)" id="L1_18">
			<path d="m57.223 32.241c0-6.131-5.001-11.119-11.148-11.119-.35 0-.693.021-1.035.053-2.399-4.504-6.659-7.714-11.535-8.829 1.009-.99 1.637-2.366 1.637-3.888 0-3.005-2.445-5.449-5.451-5.449s-5.451 2.444-5.451 5.449c0 1.521.628 2.896 1.636 3.887-7.755 1.745-13.569 8.675-13.569 16.947v13.854c-3.048.005-5.527 2.499-5.527 5.564 0 3.068 2.483 5.564 5.535 5.564h9.73c.493 3.783 3.73 6.717 7.646 6.717s7.153-2.934 7.646-6.717h9.73c3.052 0 5.535-2.496 5.535-5.564 0-2.771-2.026-5.067-4.665-5.489 5.261-.89 9.286-5.468 9.286-10.98zm-30.985-23.783c0-1.902 1.548-3.449 3.451-3.449s3.451 1.547 3.451 3.449c0 1.871-1.58 3.451-3.451 3.451s-3.451-1.58-3.451-3.451zm3.451 5.451c5.456 0 10.54 2.971 13.288 7.66-4.629 1.346-8.024 5.616-8.024 10.672 0 5.354 3.787 9.837 8.816 10.904h-29.464v-13.853c0-8.482 6.901-15.383 15.384-15.383zm0 45.082c-2.812 0-5.15-2.04-5.625-4.717h11.25c-.474 2.677-2.813 4.717-5.625 4.717zm20.913-10.281c0 1.966-1.586 3.564-3.535 3.564h-34.754c-1.949 0-3.535-1.599-3.535-3.564s1.586-3.564 3.535-3.564h34.754c1.949 0 3.535 1.598 3.535 3.564zm-4.528-7.32c-5.029 0-9.121-4.104-9.121-9.148 0-5.028 4.092-9.119 9.121-9.119 5.045 0 9.148 4.091 9.148 9.119.001 5.044-4.103 9.148-9.148 9.148z" />
			<path d="m8.516 29.669h.028c.539 0 .983-.43.999-.973.185-6.746 3.738-12.914 9.506-16.498.47-.292.613-.908.322-1.377-.291-.47-.908-.613-1.377-.322-6.341 3.94-10.248 10.723-10.451 18.143-.015.551.421 1.011.973 1.027z" />
			<path d="m50.299 28.7-4.99 4.99-2.582-2.582c-.391-.391-1.023-.391-1.414 0s-.391 1.023 0 1.414l3.289 3.289c.195.195.451.293.707.293s.512-.098.707-.293l5.697-5.697c.391-.391.391-1.023 0-1.414s-1.024-.39-1.414 0z" />
		</g>
		<g transform="matrix(0.625 0 0 0.625 155 330)" id="L1_19">
			<path d="m29.44 50.555-6.65-11.518v-10.173c0-2.421-1.97-4.391-4.392-4.391-.156 0-.306.033-.459.05-.379-2.036-2.148-3.583-4.275-3.583-.259 0-.514.03-.766.075v-.488c0-2.46-2.018-4.462-4.499-4.462-2.46 0-4.462 2.002-4.462 4.462v14.908c0 .176.046.349.135.501l9.192 15.88v8.847c0 .553.448 1 1 1s1-.447 1-1v-9.115c0-.176-.046-.349-.135-.501l-9.192-15.88v-14.64c0-1.357 1.104-2.462 2.462-2.462 1.378 0 2.499 1.104 2.499 2.462v12.89c-.019.06-.048.112-.064.173-.308 1.161-.15 2.37.446 3.407l4.96 8.573c.277.478.888.643 1.367.364.478-.276.641-.888.365-1.366l-4.959-8.57c-.33-.574-.417-1.247-.245-1.896.171-.646.58-1.182 1.148-1.509.573-.328 1.24-.417 1.875-.245.636.17 1.166.578 1.495 1.15l10.29 17.822.034 9.346c.002.551.449.996 1 .996h.003c.553-.002.999-.451.997-1.004l-.035-9.61c-.002-.173-.048-.343-.135-.493zm-16.522-19.696c-.007.004-.014.011-.021.015v-7.793c.247-.084.502-.141.766-.141 1.299 0 2.356 1.073 2.356 2.392v5.037c-1.061-.213-2.151-.055-3.101.49zm5.102.466v-4.811c.125-.021.25-.041.378-.041 1.319 0 2.392 1.072 2.392 2.391v6.707l-1.772-3.07c-.263-.457-.607-.846-.998-1.176z" />
			<path d="m55.565 16.065c-2.46 0-4.461 2.002-4.461 4.462v.49c-.253-.046-.508-.077-.768-.077-2.127 0-3.896 1.547-4.274 3.583-.153-.017-.303-.05-.459-.05-2.422 0-4.392 1.97-4.392 4.391v10.14l-6.683 11.545c-.089.153-.136.327-.136.504v9.61c0 .553.448 1 1 1s1-.447 1-1v-9.34l10.29-17.826c.68-1.186 2.208-1.59 3.405-.903 1.184.681 1.589 2.208.904 3.401l-4.96 8.573c-.276.479-.113 1.09.365 1.366.478.278 1.09.113 1.367-.364l4.962-8.576c.651-1.135.741-2.432.38-3.589v-12.878c0-1.357 1.104-2.462 2.461-2.462 1.377 0 2.498 1.104 2.498 2.462v14.64l-9.192 15.88c-.088.152-.135.325-.135.501v9.115c0 .553.448 1 1 1s1-.447 1-1v-8.847l9.192-15.88c.088-.152.135-.325.135-.501v-14.908c-.001-2.46-2.019-4.462-4.499-4.462zm-10.618 16.436-1.737 3.022v-6.659c0-1.318 1.073-2.391 2.392-2.391.128 0 .253.02.378.04v4.784c-.401.332-.759.727-1.033 1.204zm3.033-2.14v-5.029c0-1.318 1.057-2.392 2.355-2.392.265 0 .52.06.768.148v7.786c-.008-.005-.014-.011-.021-.016-.978-.56-2.075-.696-3.102-.497z" />
			<path d="m42.842 13.167c0-5.972-4.869-10.83-10.854-10.83-5.972 0-10.83 4.858-10.83 10.83 0 5.984 4.858 10.854 10.83 10.854 5.985 0 10.854-4.87 10.854-10.854zm-10.854 8.854c-4.869 0-8.83-3.972-8.83-8.854 0-4.869 3.961-8.83 8.83-8.83 4.882 0 8.854 3.961 8.854 8.83 0 4.882-3.972 8.854-8.854 8.854z" />
			<path d="m36.085 9.709-4.839 4.817-2.637-2.637c-.391-.391-1.023-.391-1.414 0s-.391 1.023 0 1.414l3.342 3.343c.195.195.451.293.707.293.255 0 .51-.097.706-.291l5.547-5.521c.391-.39.393-1.023.003-1.414s-1.022-.393-1.415-.004z" />
		</g>
		<g transform="matrix(0.3125 0 0 0.3125 252.5 340)" id="L1_20">
			<path d="m48.908 14.36h-3.109v-3.309c0-.552-.447-1-1-1h-6.598v-3.79c0-1.802-1.466-3.268-3.268-3.268h-5.641c-1.802 0-3.268 1.466-3.268 3.268v3.79h-6.624c-.553 0-1 .448-1 1v3.309h-3.309c-3.052 0-5.535 2.483-5.535 5.536v35.574c0 3.052 2.483 5.535 5.535 5.535h33.816c3.052 0 5.535-2.483 5.535-5.535v-35.574c.001-3.052-2.482-5.536-5.534-5.536zm-20.883-8.098c0-.699.568-1.268 1.268-1.268h5.641c.699 0 1.268.569 1.268 1.268v3.79h-8.176v-3.79zm-7.625 5.79h23.398v3.309c0 1.824-1.484 3.309-3.309 3.309h-16.753c-1.84 0-3.336-1.484-3.336-3.309zm32.043 43.419c0 1.949-1.586 3.535-3.535 3.535h-33.816c-1.949 0-3.535-1.586-3.535-3.535v-35.575c0-1.95 1.586-3.536 3.535-3.536h3.41c.473 2.45 2.636 4.309 5.234 4.309h16.754c2.584 0 4.737-1.859 5.207-4.309h3.211c1.949 0 3.535 1.586 3.535 3.536z" />
			<path d="m31.986 26.946c-5.912 0-10.723 4.81-10.723 10.723 0 5.929 4.811 10.752 10.723 10.752 5.928 0 10.75-4.823 10.75-10.752 0-5.913-4.822-10.723-10.75-10.723zm0 19.475c-4.81 0-8.723-3.926-8.723-8.752 0-4.81 3.913-8.723 8.723-8.723 4.825 0 8.75 3.913 8.75 8.723 0 4.826-3.924 8.752-8.75 8.752z" />
			<path d="m36.014 34.241-4.764 4.764-3.291-3.29c-.391-.391-1.023-.391-1.414 0s-.391 1.024 0 1.414l3.998 3.997c.195.195.451.293.707.293s.512-.098.707-.293l5.471-5.471c.391-.391.391-1.023 0-1.414s-1.024-.39-1.414 0z" />
			<path d="m33.631 6.65h-3.063c-.553 0-1 .448-1 1s.447 1 1 1h3.063c.553 0 1-.448 1-1s-.447-1-1-1z" />
		</g>
		<g transform="matrix(0.3125 0 0 0.3125 77.5 340)" id="L1_21">
			<path d="m58.206 42.778h-2.6v-25.079c0-3.99-3.259-7.236-7.265-7.236h-32.711c-3.99 0-7.236 3.246-7.236 7.236v25.079h-2.6c-.553 0-1 .448-1 1v4.365c0 2.974 2.42 5.394 5.394 5.394h43.625c2.974 0 5.394-2.419 5.394-5.394v-4.365c-.001-.552-.448-1-1.001-1zm-47.812-25.079c0-2.887 2.349-5.236 5.236-5.236h32.712c2.903 0 5.265 2.349 5.265 5.236v25.079h-43.213zm46.812 30.445c0 1.871-1.522 3.394-3.394 3.394h-43.624c-1.871 0-3.394-1.522-3.394-3.394v-3.365h50.412z" />
			<path d="m31.986 17.635c-5.491 0-9.958 4.48-9.958 9.986 0 5.49 4.467 9.957 9.958 9.957 5.506 0 9.985-4.467 9.985-9.957.001-5.506-4.479-9.986-9.985-9.986zm0 17.943c-4.388 0-7.958-3.569-7.958-7.957 0-4.404 3.57-7.986 7.958-7.986 4.403 0 7.985 3.583 7.985 7.986.001 4.388-3.581 7.957-7.985 7.957z" />
			<path d="m35.645 24.391-4.339 4.339-2.213-2.213c-.391-.391-1.023-.391-1.414 0s-.391 1.023 0 1.414l2.92 2.92c.195.195.451.293.707.293s.512-.098.707-.293l5.046-5.046c.391-.391.391-1.023 0-1.414s-1.024-.391-1.414 0z" />
		</g>
		<g transform="matrix(1.3583331932190024 0.36396428217541976 -0.36396428217541976 1.3583331932190024 -31.819780821913927 -55.113701094796824)" id="L1_22">
			<path d="m45.662 3.008h-18.68c-6.478 0-12.016 4.049-14.25 9.744-5.841 2.317-9.738 7.975-9.738 14.245v18.68c0 8.445 6.882 15.315 15.342 15.315h18.682c6.264 0 11.91-3.885 14.219-9.709 5.709-2.237 9.77-7.787 9.77-14.28v-18.68c-.001-8.445-6.884-15.315-15.345-15.315zm-8.644 55.984h-18.682c-7.356 0-13.342-5.973-13.342-13.315v-18.68c0-4.898 2.734-9.373 6.976-11.694-.196.977-.302 1.986-.302 3.02v18.68c0 8.46 6.87 15.343 15.314 15.343h18.68c1.035 0 2.045-.106 3.022-.302-2.312 4.226-6.776 6.948-11.666 6.948zm21.988-21.989c0 7.357-5.986 13.343-13.344 13.343h-18.68c-7.342 0-13.314-5.986-13.314-13.343v-18.68c0-7.342 5.973-13.315 13.314-13.315h18.68c7.357 0 13.344 5.973 13.344 13.315z" />
			<path d="m45.581 20.648-11.935 11.909-6.552-6.55c-.391-.391-1.023-.391-1.414 0s-.391 1.024 0 1.414l7.258 7.257c.195.195.451.293.707.293s.511-.097.706-.292l12.643-12.614c.392-.39.392-1.023.002-1.415-.392-.392-1.024-.392-1.415-.002z" />
		</g>
		<g transform="matrix(0.625 0 0 0.625 67.5 67.5)" id="L1_23">
			<path d="m53.594 25.403c0-11.914-9.681-21.607-21.58-21.607-11.915 0-21.608 9.693-21.608 21.607 0 8.05 4.439 15.08 10.999 18.789v13.016c0 1.081.53 2.015 1.439 2.553.482.297 1.01.446 1.543.446.47 0 .944-.117 1.391-.35l6.237-3.172 6.211 3.158c.93.507 2.003.481 2.961-.085.882-.546 1.409-1.5 1.409-2.551v-13.017c6.555-3.707 10.998-10.733 10.998-18.787zm-12.999 31.805c0 .364-.164.666-.443.84-.229.133-.583.251-.995.026l-6.69-3.402c-.284-.145-.622-.145-.906 0l-6.699 3.407c-.331.173-.665.165-.984-.03-.391-.231-.473-.585-.473-.841v-12.017c2.64 1.15 5.55 1.792 8.609 1.792 3.049 0 5.949-.644 8.581-1.79zm-8.581-12.225c-10.812 0-19.608-8.783-19.608-19.58 0-10.812 8.796-19.607 19.608-19.607 10.796 0 19.58 8.796 19.58 19.607 0 10.797-8.783 19.58-19.58 19.58z" />
			<path d="m32.014 13.716c-6.444 0-11.687 5.243-11.687 11.688 0 6.443 5.243 11.686 11.687 11.686s11.687-5.242 11.687-11.686c0-6.445-5.243-11.688-11.687-11.688zm0 21.373c-5.341 0-9.687-4.345-9.687-9.686 0-5.342 4.345-9.688 9.687-9.688s9.687 4.346 9.687 9.688c0 5.341-4.346 9.686-9.687 9.686z" />
			<path d="m36.835 21.21-6.267 6.266-3.403-3.402c-.391-.391-1.023-.391-1.414 0s-.391 1.023 0 1.414l4.11 4.109c.195.195.451.293.707.293s.512-.098.707-.293l6.974-6.973c.391-.391.391-1.023 0-1.414s-1.023-.391-1.414 0z" />
		</g>
		<g transform="matrix(1.40625 0 0 1.40625 217.5 217.5)" id="L1_24">
			<path d="m52.636 3.008h-26.645c-4.584 0-8.313 3.729-8.313 8.313v1.636h-8.553c-3.349 0-6.074 2.737-6.074 6.102v33.619c0 4.584 3.729 8.313 8.313 8.313h41.272c4.584 0 8.313-3.729 8.313-8.313v-41.357c.001-4.584-3.729-8.313-8.313-8.313zm-47.586 49.671v-33.619c0-2.262 1.828-4.102 4.074-4.102h8.553v37.721c0 3.481-2.832 6.313-6.313 6.313s-6.314-2.832-6.314-6.313zm53.9 0c0 3.481-2.832 6.313-6.313 6.313h-35.879c1.784-1.526 2.919-3.788 2.919-6.313v-41.358c0-3.481 2.832-6.313 6.313-6.313h26.646c3.481 0 6.313 2.832 6.313 6.313v41.358z" />
			<path d="m39.313 31.909c5.444 0 9.873-4.429 9.873-9.873s-4.429-9.873-9.873-9.873-9.873 4.429-9.873 9.873 4.43 9.873 9.873 9.873zm0-17.745c4.341 0 7.873 3.532 7.873 7.873s-3.532 7.873-7.873 7.873-7.873-3.532-7.873-7.873 3.533-7.873 7.873-7.873z" />
			<path d="m48.328 33.905h-18.029c-.552 0-1 .448-1 1s.448 1 1 1h18.028c.552 0 1-.448 1-1s-.447-1-.999-1z" />
			<path d="m48.328 41.871h-18.029c-.552 0-1 .448-1 1s.448 1 1 1h18.028c.552 0 1-.448 1-1s-.447-1-.999-1z" />
			<path d="m48.328 49.836h-18.029c-.552 0-1 .448-1 1s.448 1 1 1h18.028c.552 0 1-.448 1-1s-.447-1-.999-1z" />
			<path d="m37.926 25.238c.188.188.442.293.707.293s.52-.105.707-.293l4.989-4.989c.391-.391.391-1.023 0-1.414s-1.023-.391-1.414 0l-4.282 4.282-2.185-2.185c-.391-.391-1.023-.391-1.414 0s-.391 1.023 0 1.414z" />
		</g>
		<g transform="matrix(0.625 0 0 0.625 242.5 67.5)" id="L1_25">
			<path d="m54.497 15.276c-10.161-5.219-21.835-12.527-21.952-12.6-.325-.203-.737-.203-1.063 0-.117.073-11.791 7.381-21.979 12.601-.335.172-.546.518-.544.895.009 1.85.488 45.3 22.644 45.305h.004c.144 0 .285-.001.379-.005.146.004.291.005.435.005 22.133 0 22.607-43.455 22.616-45.305.005-.378-.205-.724-.54-.896zm-22.074 44.2-.435-.005c-.131.004-.281.003-.383.005-18.855-.004-20.497-37.44-20.633-42.706 8.88-4.59 18.681-10.605 21.042-12.068 2.36 1.463 12.157 7.479 21.014 12.068-.134 5.262-1.762 42.706-20.605 42.706z" />
			<path d="m19.761 34.422c0 6.756 5.497 12.252 12.253 12.252s12.253-5.496 12.253-12.252c0-6.757-5.497-12.254-12.253-12.254s-12.253 5.497-12.253 12.254zm22.507 0c0 5.653-4.6 10.252-10.253 10.252s-10.253-4.599-10.253-10.252c0-5.654 4.6-10.254 10.253-10.254s10.253 4.6 10.253 10.254z" />
			<path d="m28.187 33.203c-.391-.391-1.024-.391-1.415 0s-.391 1.023 0 1.414l3.656 3.658c.188.188.442.293.708.293s.52-.105.707-.293l6.321-6.322c.391-.391.391-1.023 0-1.414s-1.023-.391-1.414 0l-5.614 5.615z" />
		</g>
		<g transform="matrix(1.09375 0 0 1.09375 315 140)" id="L1_26">
			<path d="m55.019 49.003-5.925-10.247c2.817-3.65 4.5-8.22 4.5-13.178 0-11.898-9.694-21.578-21.608-21.578-11.899 0-21.58 9.68-21.58 21.578 0 4.954 1.678 9.521 4.489 13.171l-5.918 10.262c-.539.951-.539 2.044.009 3.014.558.943 1.502 1.483 2.59 1.483h5.744l2.892 5.009c.55.929 1.518 1.483 2.59 1.483 1.09 0 2.069-.555 2.625-1.493l6.519-11.32c.014 0 .027.001.041.001.023 0 .046-.002.07-.002l6.524 11.331c.557.942 1.501 1.483 2.59 1.483 1.072 0 2.041-.555 2.595-1.492l2.886-5h5.772c1.089 0 2.033-.541 2.601-1.501.538-.953.537-2.045-.006-3.004zm-23.033-43.003c10.812 0 19.608 8.782 19.608 19.578 0 10.813-8.796 19.609-19.608 19.609-10.796 0-19.58-8.797-19.58-19.609 0-10.796 8.783-19.578 19.58-19.578zm-8.288 51.499c-.365.616-1.388.638-1.76.009l-3.175-5.5c-.179-.31-.509-.5-.866-.5h-6.321c-.374 0-.674-.174-.858-.484-.196-.346-.196-.682-.004-1.02l5.558-9.639c3.449 3.673 8.16 6.144 13.435 6.701zm29.594-6.492c-.193.328-.493.501-.868.501h-6.35c-.357 0-.688.19-.866.5l-3.17 5.491c-.387.657-1.354.646-1.73.01l-6.015-10.446c5.27-.562 9.977-3.028 13.424-6.693l5.566 9.627c.196.345.196.681.009 1.01z" />
			<path d="m31.986 37.266c6.444 0 11.687-5.243 11.687-11.688 0-6.443-5.243-11.686-11.687-11.686s-11.687 5.242-11.687 11.686 5.243 11.688 11.687 11.688zm0-21.373c5.341 0 9.687 4.345 9.687 9.686 0 5.342-4.346 9.688-9.687 9.688s-9.687-4.346-9.687-9.688 4.346-9.686 9.687-9.686z" />
			<path d="m29.861 29.773c.188.188.442.293.707.293s.52-.105.707-.293l6.974-6.975c.391-.391.391-1.023 0-1.414s-1.023-.391-1.414 0l-6.267 6.268-3.403-3.404c-.391-.391-1.023-.391-1.414 0s-.391 1.023 0 1.414z" />
		</g>
	</defs>
	<g fi:class="KUsePattern">
		<pattern id="pattern_L1_17" width="350" height="350" patternUnits="userSpaceOnUse">
			<use xlink:href="#L1_17" x="-350" y="-350" />
			<use xlink:href="#L1_17" x="0" y="-350" />
			<use xlink:href="#L1_17" x="350" y="-350" />
			<use xlink:href="#L1_17" x="-350" y="0" />
			<use xlink:href="#L1_17" x="0" y="0" />
			<use xlink:href="#L1_17" x="350" y="0" />
			<use xlink:href="#L1_17" x="-350" y="350" />
			<use xlink:href="#L1_17" x="0" y="350" />
			<use xlink:href="#L1_17" x="350" y="350" />
		</pattern>
		<rect x="0" y="0" width="100%" height="100%" fill="url(#pattern_L1_17)" />
	</g>
	<g fi:class="KUsePattern">
		<pattern id="pattern_L1_18" width="350" height="350" patternUnits="userSpaceOnUse">
			<use xlink:href="#L1_18" x="-350" y="-350" />
			<use xlink:href="#L1_18" x="0" y="-350" />
			<use xlink:href="#L1_18" x="350" y="-350" />
			<use xlink:href="#L1_18" x="-350" y="0" />
			<use xlink:href="#L1_18" x="0" y="0" />
			<use xlink:href="#L1_18" x="350" y="0" />
			<use xlink:href="#L1_18" x="-350" y="350" />
			<use xlink:href="#L1_18" x="0" y="350" />
			<use xlink:href="#L1_18" x="350" y="350" />
		</pattern>
		<rect x="0" y="0" width="100%" height="100%" fill="url(#pattern_L1_18)" />
	</g>
	<g fi:class="KUsePattern">
		<pattern id="pattern_L1_19" width="350" height="350" patternUnits="userSpaceOnUse">
			<use xlink:href="#L1_19" x="-350" y="-350" />
			<use xlink:href="#L1_19" x="0" y="-350" />
			<use xlink:href="#L1_19" x="350" y="-350" />
			<use xlink:href="#L1_19" x="-350" y="0" />
			<use xlink:href="#L1_19" x="0" y="0" />
			<use xlink:href="#L1_19" x="350" y="0" />
			<use xlink:href="#L1_19" x="-350" y="350" />
			<use xlink:href="#L1_19" x="0" y="350" />
			<use xlink:href="#L1_19" x="350" y="350" />
		</pattern>
		<rect x="0" y="0" width="100%" height="100%" fill="url(#pattern_L1_19)" />
	</g>
	<g fi:class="KUsePattern">
		<pattern id="pattern_L1_20" width="350" height="350" patternUnits="userSpaceOnUse">
			<use xlink:href="#L1_20" x="-350" y="-350" />
			<use xlink:href="#L1_20" x="0" y="-350" />
			<use xlink:href="#L1_20" x="350" y="-350" />
			<use xlink:href="#L1_20" x="-350" y="0" />
			<use xlink:href="#L1_20" x="0" y="0" />
			<use xlink:href="#L1_20" x="350" y="0" />
			<use xlink:href="#L1_20" x="-350" y="350" />
			<use xlink:href="#L1_20" x="0" y="350" />
			<use xlink:href="#L1_20" x="350" y="350" />
		</pattern>
		<rect x="0" y="0" width="100%" height="100%" fill="url(#pattern_L1_20)" />
	</g>
	<g fi:class="KUsePattern">
		<pattern id="pattern_L1_21" width="350" height="350" patternUnits="userSpaceOnUse">
			<use xlink:href="#L1_21" x="-350" y="-350" />
			<use xlink:href="#L1_21" x="0" y="-350" />
			<use xlink:href="#L1_21" x="350" y="-350" />
			<use xlink:href="#L1_21" x="-350" y="0" />
			<use xlink:href="#L1_21" x="0" y="0" />
			<use xlink:href="#L1_21" x="350" y="0" />
			<use xlink:href="#L1_21" x="-350" y="350" />
			<use xlink:href="#L1_21" x="0" y="350" />
			<use xlink:href="#L1_21" x="350" y="350" />
		</pattern>
		<rect x="0" y="0" width="100%" height="100%" fill="url(#pattern_L1_21)" />
	</g>
	<g fi:class="KUsePattern">
		<pattern id="pattern_L1_22" width="350" height="350" patternUnits="userSpaceOnUse">
			<use xlink:href="#L1_22" x="-350" y="-350" />
			<use xlink:href="#L1_22" x="0" y="-350" />
			<use xlink:href="#L1_22" x="350" y="-350" />
			<use xlink:href="#L1_22" x="-350" y="0" />
			<use xlink:href="#L1_22" x="0" y="0" />
			<use xlink:href="#L1_22" x="350" y="0" />
			<use xlink:href="#L1_22" x="-350" y="350" />
			<use xlink:href="#L1_22" x="0" y="350" />
			<use xlink:href="#L1_22" x="350" y="350" />
		</pattern>
		<rect x="0" y="0" width="100%" height="100%" fill="url(#pattern_L1_22)" />
	</g>
	<g fi:class="KUsePattern">
		<pattern id="pattern_L1_23" width="350" height="350" patternUnits="userSpaceOnUse">
			<use xlink:href="#L1_23" x="-350" y="-350" />
			<use xlink:href="#L1_23" x="0" y="-350" />
			<use xlink:href="#L1_23" x="350" y="-350" />
			<use xlink:href="#L1_23" x="-350" y="0" />
			<use xlink:href="#L1_23" x="0" y="0" />
			<use xlink:href="#L1_23" x="350" y="0" />
			<use xlink:href="#L1_23" x="-350" y="350" />
			<use xlink:href="#L1_23" x="0" y="350" />
			<use xlink:href="#L1_23" x="350" y="350" />
		</pattern>
		<rect x="0" y="0" width="100%" height="100%" fill="url(#pattern_L1_23)" />
	</g>
	<g fi:class="KUsePattern">
		<pattern id="pattern_L1_24" width="350" height="350" patternUnits="userSpaceOnUse">
			<use xlink:href="#L1_24" x="-350" y="-350" />
			<use xlink:href="#L1_24" x="0" y="-350" />
			<use xlink:href="#L1_24" x="350" y="-350" />
			<use xlink:href="#L1_24" x="-350" y="0" />
			<use xlink:href="#L1_24" x="0" y="0" />
			<use xlink:href="#L1_24" x="350" y="0" />
			<use xlink:href="#L1_24" x="-350" y="350" />
			<use xlink:href="#L1_24" x="0" y="350" />
			<use xlink:href="#L1_24" x="350" y="350" />
		</pattern>
		<rect x="0" y="0" width="100%" height="100%" fill="url(#pattern_L1_24)" />
	</g>
	<g fi:class="KUsePattern">
		<pattern id="pattern_L1_25" width="350" height="350" patternUnits="userSpaceOnUse">
			<use xlink:href="#L1_25" x="-350" y="-350" />
			<use xlink:href="#L1_25" x="0" y="-350" />
			<use xlink:href="#L1_25" x="350" y="-350" />
			<use xlink:href="#L1_25" x="-350" y="0" />
			<use xlink:href="#L1_25" x="0" y="0" />
			<use xlink:href="#L1_25" x="350" y="0" />
			<use xlink:href="#L1_25" x="-350" y="350" />
			<use xlink:href="#L1_25" x="0" y="350" />
			<use xlink:href="#L1_25" x="350" y="350" />
		</pattern>
		<rect x="0" y="0" width="100%" height="100%" fill="url(#pattern_L1_25)" />
	</g>
	<g fi:class="KUsePattern">
		<pattern id="pattern_L1_26" width="350" height="350" patternUnits="userSpaceOnUse">
			<use xlink:href="#L1_26" x="-350" y="-350" />
			<use xlink:href="#L1_26" x="0" y="-350" />
			<use xlink:href="#L1_26" x="350" y="-350" />
			<use xlink:href="#L1_26" x="-350" y="0" />
			<use xlink:href="#L1_26" x="0" y="0" />
			<use xlink:href="#L1_26" x="350" y="0" />
			<use xlink:href="#L1_26" x="-350" y="350" />
			<use xlink:href="#L1_26" x="0" y="350" />
			<use xlink:href="#L1_26" x="350" y="350" />
		</pattern>
		<rect x="0" y="0" width="100%" height="100%" fill="url(#pattern_L1_26)" />
	</g>
</svg>
